<?xml version="1.0" standalone="no"?>
<!DOCTYPE svg PUBLIC "-//W3C//DTD SVG 20010904//EN"
 "http://www.w3.org/TR/2001/REC-SVG-20010904/DTD/svg10.dtd">
<svg version="1.0" xmlns="http://www.w3.org/2000/svg"
 width="2210.000000pt" height="2210.000000pt" viewBox="0 0 2210.000000 2210.000000"
 preserveAspectRatio="xMidYMid meet">
<metadata>
Created by potrace 1.11, written by Peter Selinger 2001-2013
</metadata>
<g transform="translate(0.000000,2210.000000) scale(0.100000,-0.100000)"
fill="#000000" stroke="none">
<path d="M7489 21916 c-2 -2 -39 -6 -82 -10 -215 -18 -489 -93 -712 -195 -174
-79 -406 -226 -545 -346 -62 -53 -234 -228 -275 -280 -22 -27 -43 -52 -47 -55
-21 -16 -183 -274 -231 -366 -84 -166 -168 -390 -192 -515 -3 -13 -11 -55 -20
-94 -35 -167 -44 -273 -40 -495 2 -107 5 -204 8 -216 3 -12 8 -45 12 -75 3
-30 10 -70 15 -89 5 -19 11 -48 13 -65 32 -208 182 -564 336 -794 l62 -93 -36
-87 c-20 -47 -38 -90 -39 -96 -6 -19 -42 -117 -61 -160 -7 -17 -16 -46 -20
-65 -4 -19 -12 -41 -17 -47 -6 -7 -7 -13 -3 -13 4 0 3 -6 -3 -12 -6 -7 -10
-15 -11 -18 0 -3 -2 -12 -5 -20 -6 -19 -28 -104 -27 -107 0 -2 -7 -22 -15 -45
-9 -24 -18 -54 -20 -68 -3 -14 -9 -36 -14 -50 -4 -14 -13 -47 -19 -75 -18 -79
-20 -87 -32 -135 -14 -57 -17 -75 -25 -124 -3 -22 -8 -44 -10 -47 -2 -4 -6
-24 -9 -45 -3 -22 -7 -50 -10 -64 -3 -14 -7 -41 -10 -60 -3 -19 -7 -46 -10
-59 -4 -22 -15 -104 -20 -161 -2 -14 -4 -25 -5 -25 -1 0 -3 -25 -5 -55 -1 -30
-4 -55 -5 -55 -1 0 -9 -90 -13 -162 -1 -17 -5 -35 -9 -39 -4 -4 -3 -14 4 -21
9 -11 9 -17 -3 -24 -9 -6 -10 -12 -4 -16 12 -10 16 -45 4 -38 -4 3 -8 -94 -8
-215 0 -170 3 -219 12 -213 7 4 7 0 -2 -10 -10 -12 -10 -21 -3 -30 7 -8 7 -18
2 -27 -12 -19 -13 -33 -1 -26 12 8 8 -27 -4 -36 -6 -5 -6 -8 1 -8 10 0 15 -51
18 -182 1 -27 4 -48 7 -48 3 0 7 -24 9 -52 4 -64 5 -79 14 -143 5 -27 9 -61
11 -75 2 -14 11 -70 21 -125 9 -55 17 -106 17 -112 0 -7 3 -13 7 -13 4 0 6
-10 5 -22 -1 -13 2 -34 7 -47 7 -20 14 -53 22 -111 1 -9 5 -21 10 -28 4 -6 5
-16 1 -21 -3 -5 0 -13 6 -16 5 -4 8 -13 5 -21 -3 -7 -1 -16 4 -19 6 -4 10 -17
10 -31 0 -14 4 -33 10 -43 26 -50 18 -110 -14 -98 -9 4 -16 2 -16 -3 0 -6 -6
-10 -13 -10 -7 0 -63 -16 -125 -36 -61 -19 -115 -35 -118 -34 -4 1 -10 -2 -13
-7 -5 -7 -55 -29 -86 -37 -37 -10 -200 -80 -205 -88 -3 -4 -16 -9 -28 -11 -12
-2 -28 -9 -34 -15 -7 -7 -15 -12 -19 -12 -8 0 -212 -111 -219 -119 -3 -3 -25
-19 -50 -35 -138 -89 -283 -227 -365 -348 -26 -38 -95 -172 -100 -192 -1 -6
-5 -18 -8 -26 -16 -38 -34 -144 -36 -211 -1 -41 -4 -76 -6 -78 -3 -2 -15 -5
-27 -6 -27 -4 -104 -18 -158 -30 -14 -4 -35 -8 -47 -11 -12 -2 -35 -9 -50 -15
-16 -6 -30 -10 -33 -10 -12 2 -76 -12 -91 -20 -9 -4 -27 -10 -40 -13 -28 -5
-145 -43 -174 -57 -11 -5 -29 -10 -40 -12 -11 -1 -25 -6 -32 -10 -17 -11 -157
-67 -166 -67 -5 0 -22 -9 -38 -21 -16 -11 -29 -17 -29 -13 0 4 -8 0 -17 -8
-10 -9 -35 -21 -55 -27 -20 -7 -38 -15 -40 -19 -2 -4 -33 -23 -71 -42 -37 -19
-67 -38 -67 -42 0 -4 -5 -8 -11 -8 -9 0 -133 -76 -162 -100 -7 -6 -35 -27 -63
-47 -173 -127 -325 -274 -471 -457 -40 -50 -77 -96 -83 -103 -5 -7 -10 -17
-10 -23 0 -5 -4 -10 -8 -10 -4 0 -17 -14 -27 -32 -11 -17 -30 -48 -42 -67 -44
-70 -104 -180 -103 -187 1 -4 -3 -10 -9 -13 -12 -8 -131 -260 -137 -291 0 -3
-6 -18 -13 -35 -23 -55 -89 -255 -85 -255 3 0 0 -10 -7 -21 -6 -12 -13 -36
-16 -53 -3 -17 -9 -39 -15 -49 -5 -10 -7 -21 -4 -24 3 -4 1 -12 -5 -20 -6 -7
-9 -13 -6 -13 3 0 1 -15 -4 -32 -5 -18 -12 -46 -15 -63 -2 -16 -7 -37 -9 -45
-2 -8 -7 -30 -10 -47 -17 -108 -23 -139 -30 -173 -7 -33 -17 -134 -19 -187 0
-24 -3 -43 -6 -43 -5 0 -12 -89 -14 -190 0 -30 -5 -58 -10 -61 -4 -4 -3 -17 4
-29 7 -13 8 -20 2 -16 -7 4 -9 -84 -7 -276 2 -156 4 -289 4 -295 1 -7 1 -19 0
-25 0 -11 7 -133 14 -223 2 -17 6 -36 10 -43 5 -7 3 -12 -3 -12 -6 0 -8 -5 -4
-11 6 -10 13 -76 17 -166 1 -13 3 -23 7 -23 3 0 6 -24 7 -53 4 -72 32 -286 49
-367 3 -14 8 -45 11 -70 3 -25 8 -47 12 -50 3 -3 7 -16 8 -30 4 -58 8 -80 13
-80 3 0 6 -8 7 -17 1 -32 12 -97 22 -130 5 -18 7 -33 4 -33 -3 0 0 -7 7 -15 7
-8 10 -15 8 -15 -3 0 1 -26 9 -57 8 -32 16 -67 18 -78 3 -16 35 -135 49 -180
2 -5 6 -23 11 -40 4 -16 17 -61 28 -100 12 -38 21 -73 22 -77 0 -3 3 -9 7 -13
4 -4 4 -13 1 -21 -3 -8 0 -14 6 -14 6 0 11 -8 11 -17 0 -10 12 -52 26 -93 14
-41 27 -82 29 -90 3 -8 16 -46 31 -85 14 -38 28 -80 31 -93 3 -12 9 -25 14
-28 5 -3 9 -16 9 -30 0 -13 5 -24 12 -24 6 0 9 -3 5 -6 -3 -4 3 -25 15 -48 11
-22 20 -42 20 -43 -3 -5 11 -38 75 -188 36 -82 67 -160 70 -172 3 -13 10 -23
15 -23 5 0 7 -4 3 -9 -3 -5 2 -16 10 -24 8 -9 15 -20 15 -24 0 -5 12 -34 27
-64 15 -30 27 -56 28 -59 2 -10 70 -145 75 -150 3 -3 23 -42 45 -87 22 -46 43
-83 48 -83 4 0 6 -3 4 -7 -2 -5 4 -21 14 -38 10 -16 24 -41 31 -55 7 -14 15
-27 18 -30 3 -3 12 -18 20 -35 8 -16 41 -74 73 -128 31 -54 57 -103 57 -108 0
-5 5 -9 10 -9 6 0 10 -7 10 -15 0 -8 5 -15 10 -15 6 0 10 -5 10 -11 0 -6 13
-31 30 -56 16 -24 30 -48 30 -54 0 -5 5 -9 10 -9 6 0 10 -4 10 -9 0 -13 179
-284 194 -293 6 -4 8 -8 3 -8 -4 0 18 -34 48 -74 30 -41 55 -80 55 -85 0 -6 4
-11 9 -11 5 0 20 -17 32 -38 29 -47 112 -156 122 -160 4 -2 7 -8 7 -13 0 -8
26 -42 56 -73 6 -6 13 -16 15 -22 5 -13 64 -87 96 -121 13 -13 23 -27 23 -30
0 -3 21 -31 47 -62 26 -31 53 -63 60 -71 6 -8 21 -25 33 -37 11 -13 20 -25 20
-28 0 -2 10 -15 23 -27 12 -13 36 -41 54 -62 53 -64 136 -158 170 -194 18 -18
33 -35 33 -36 0 -5 92 -104 193 -209 119 -123 357 -366 357 -363 0 1 40 -36
89 -84 49 -47 130 -123 181 -170 127 -116 137 -125 204 -183 33 -29 70 -61 82
-72 12 -11 46 -40 75 -65 29 -25 63 -54 75 -65 13 -11 36 -30 51 -42 15 -12
37 -30 48 -40 25 -23 289 -233 375 -299 35 -27 71 -54 80 -61 17 -14 191 -145
230 -173 14 -10 46 -34 73 -54 26 -20 52 -36 57 -36 6 0 10 -3 10 -7 0 -5 25
-24 55 -43 30 -19 55 -38 55 -42 0 -5 6 -8 13 -8 7 0 24 -11 39 -25 15 -14 31
-25 35 -25 4 0 19 -9 33 -21 14 -11 113 -78 220 -149 107 -71 200 -134 206
-139 7 -5 15 -7 18 -4 3 4 6 2 6 -4 0 -6 8 -13 18 -17 9 -3 44 -24 77 -46 33
-22 68 -43 78 -46 9 -4 17 -10 17 -14 0 -4 8 -10 18 -14 9 -3 58 -31 107 -62
50 -31 110 -67 135 -81 25 -13 57 -32 72 -41 57 -37 121 -72 129 -72 5 0 9 -3
9 -7 0 -5 10 -13 23 -18 47 -22 112 -60 119 -70 4 -5 8 -6 8 -1 0 5 6 4 13 -1
6 -6 37 -24 67 -40 30 -17 80 -44 110 -60 84 -46 119 -64 126 -62 4 0 10 -4
13 -9 8 -13 489 -252 507 -252 8 0 14 -3 14 -8 0 -4 15 -13 33 -21 135 -58
173 -76 179 -86 4 -5 8 -6 8 -2 0 4 10 2 23 -5 12 -7 24 -13 27 -13 3 -1 36
-16 74 -33 38 -18 74 -32 80 -32 7 0 17 -5 24 -12 6 -6 18 -13 25 -14 7 -1 33
-11 57 -22 36 -16 188 -77 355 -142 36 -14 80 -32 97 -41 10 -5 25 -9 33 -9 8
0 23 -4 33 -10 24 -13 345 -124 387 -134 6 -1 37 -10 70 -20 33 -10 67 -20 75
-21 8 -2 17 -4 20 -5 3 -1 8 -2 13 -1 4 0 7 -4 7 -10 0 -5 4 -8 8 -5 5 3 31
-2 58 -10 60 -19 94 -28 187 -50 9 -2 27 -7 40 -10 12 -3 30 -6 39 -6 10 1 20
-4 23 -9 4 -5 10 -7 14 -4 5 2 33 -2 62 -9 30 -8 72 -17 94 -20 22 -4 54 -9
70 -11 17 -3 48 -8 70 -11 22 -3 54 -7 70 -10 47 -8 385 -12 385 -5 0 3 17 7
38 8 53 3 147 15 227 30 17 3 40 6 52 7 12 1 25 5 29 9 4 4 16 7 27 7 10 0 85
16 165 36 81 19 154 37 162 39 8 2 15 4 15 5 0 1 7 3 15 5 8 2 33 9 55 15 22
6 47 13 55 15 8 2 16 4 18 5 1 2 5 3 10 4 4 1 41 13 82 26 90 28 78 25 115 35
17 4 35 10 40 14 6 3 16 7 23 8 29 7 47 12 50 13 1 2 5 3 10 5 4 1 14 5 22 8
8 4 67 25 130 48 63 22 129 47 147 55 17 8 35 14 40 14 6 0 24 7 42 16 17 9
37 17 44 18 7 1 22 8 35 14 12 7 27 10 32 7 6 -3 10 -2 10 3 0 5 25 17 55 27
30 11 55 23 55 27 0 4 11 8 25 8 14 0 25 5 25 10 0 6 6 10 13 9 11 -2 32 6
154 62 24 10 47 19 53 19 5 0 10 4 10 8 0 5 6 9 13 9 6 0 41 14 77 31 36 16
88 40 115 52 28 13 114 54 192 91 79 38 144 68 145 67 2 -2 18 7 36 20 17 13
32 20 32 17 0 -3 14 3 30 15 17 12 30 18 30 13 0 -4 4 -3 8 3 4 5 25 18 47 27
22 10 47 22 55 27 8 6 35 20 60 33 89 46 253 135 365 198 22 12 69 38 105 57
36 19 76 44 89 54 13 10 30 18 37 18 8 0 14 4 14 9 0 5 8 11 18 14 20 7 94 49
102 58 3 4 15 9 28 13 12 4 22 12 22 17 0 5 7 9 15 9 8 0 15 5 15 10 0 6 6 10
13 10 6 0 43 20 80 45 38 25 70 45 72 45 8 0 170 106 173 113 2 4 9 7 17 7 7
0 18 7 25 15 7 8 16 12 21 9 5 -3 9 -1 9 4 0 9 77 62 91 62 5 0 9 5 9 10 0 6
5 10 10 10 12 0 163 101 168 113 2 4 8 7 13 7 6 0 34 18 64 40 30 22 58 40 64
40 5 0 11 3 13 8 3 8 122 95 173 126 16 10 37 25 45 32 8 8 49 38 90 68 62 45
204 150 258 191 7 6 22 18 33 27 10 10 23 18 28 18 5 0 11 3 13 8 2 4 53 46
113 94 61 47 120 94 131 104 12 11 39 33 60 49 22 17 49 40 62 53 13 12 25 22
28 22 2 0 19 13 37 29 17 15 81 71 142 122 60 52 117 101 125 109 9 8 54 49
100 90 297 266 621 587 876 867 40 43 86 94 104 113 17 19 46 52 63 74 18 21
55 63 84 95 29 31 53 62 53 69 0 6 4 12 9 12 4 0 28 25 52 56 24 30 53 66 64
78 23 27 43 51 133 167 37 47 81 103 97 124 17 21 34 45 39 54 5 9 12 18 16
21 3 3 17 21 30 40 13 19 29 40 35 47 5 6 26 35 45 63 19 29 42 60 51 70 9 10
18 21 20 26 14 30 53 84 61 84 5 0 7 4 4 9 -3 5 1 15 10 22 8 7 22 26 31 43 9
17 19 33 23 36 4 3 22 30 41 60 18 30 35 57 38 60 4 3 11 14 18 25 6 11 34 57
62 102 28 45 51 86 51 92 0 6 3 11 8 11 4 0 15 15 26 33 10 17 28 48 39 67 11
19 28 49 38 65 10 17 28 48 39 70 12 22 35 63 51 90 16 28 34 62 40 78 6 15
15 27 20 27 5 0 9 9 9 20 0 11 5 20 11 20 5 0 8 4 4 9 -3 5 2 16 10 24 8 9 15
22 15 30 0 9 3 17 8 19 10 4 52 90 52 106 0 6 4 12 9 12 5 0 12 10 16 23 10
29 5 19 60 132 27 55 49 102 50 105 1 3 8 19 15 35 7 17 13 33 12 38 -1 4 3 7
8 7 5 0 9 3 8 8 -1 7 9 33 39 102 23 54 30 70 53 130 12 30 26 64 31 75 34 79
56 145 51 149 -3 3 0 6 6 6 7 0 11 3 10 8 -2 7 21 80 31 97 3 6 6 15 7 20 2
11 61 189 71 215 9 21 9 21 17 63 5 20 13 37 19 37 6 0 8 3 4 6 -3 3 1 27 9
52 8 26 17 58 20 72 3 14 10 41 16 60 14 41 15 46 23 85 3 17 8 37 12 45 3 8
7 22 9 30 2 9 10 45 19 80 9 36 18 76 21 89 3 12 12 53 20 90 9 36 17 75 19
86 3 22 12 67 20 105 4 14 7 34 9 46 2 11 7 27 11 34 6 9 4 11 -6 5 -11 -7
-12 -6 -3 6 7 8 14 37 18 64 3 28 10 76 16 108 6 31 8 62 5 67 -3 6 -2 10 2
10 5 0 9 8 10 18 1 17 6 68 18 167 12 95 13 104 20 114 3 6 1 11 -5 11 -6 0
-8 5 -4 11 3 6 8 30 10 53 1 22 5 68 8 101 21 224 27 775 12 975 -11 142 -14
175 -16 175 -1 0 -3 20 -5 45 -1 25 -3 45 -4 45 -1 0 -4 20 -6 45 -2 25 -7 61
-11 80 -4 19 -8 42 -9 50 -5 36 -16 98 -21 120 -2 14 -7 36 -9 50 -4 25 -10
55 -20 98 -3 12 -7 30 -9 40 -2 9 -9 37 -16 62 -7 25 -13 50 -15 55 -1 6 -4
17 -7 25 -3 8 -11 35 -18 60 -7 25 -16 54 -20 65 -8 18 -33 93 -35 105 -1 3
-9 22 -18 44 -9 21 -17 42 -17 47 0 9 -34 87 -77 176 -14 29 -25 56 -25 60 0
4 -9 20 -19 35 -10 14 -19 28 -19 31 0 11 -86 157 -139 236 -31 46 -60 90 -66
99 -5 9 -18 24 -27 33 -10 9 -18 20 -18 25 0 5 -8 17 -17 26 -10 9 -22 23 -28
30 -80 107 -245 271 -386 384 -41 33 -75 62 -77 67 -2 4 -8 7 -14 7 -6 0 -30
16 -54 35 -23 19 -45 35 -49 35 -4 0 -25 14 -46 31 -21 17 -39 28 -39 25 0 -3
-25 10 -55 29 -30 19 -59 35 -65 35 -5 0 -10 5 -10 10 0 6 -9 10 -19 10 -11 0
-21 3 -23 8 -2 6 -182 92 -253 122 -69 28 -183 70 -200 72 -11 2 -22 6 -25 10
-3 3 -32 14 -65 23 -171 47 -292 78 -307 77 -10 0 -20 4 -23 9 -4 5 -11 7 -16
3 -5 -3 -15 -2 -22 3 -7 5 -24 9 -39 8 -16 0 -28 2 -28 6 0 4 -6 7 -12 6 -45
-1 -47 1 -47 66 0 34 -2 73 -5 87 -3 14 -8 38 -10 53 -7 38 -27 99 -37 113 -5
6 -6 13 -3 17 3 3 -2 16 -10 29 -9 14 -13 28 -9 31 3 4 1 7 -5 7 -7 0 -12 6
-12 14 0 7 -7 19 -15 26 -8 7 -12 16 -9 21 3 5 0 9 -5 9 -6 0 -11 5 -11 11 0
18 -97 138 -164 203 -34 33 -97 86 -141 118 -44 33 -87 65 -95 71 -8 7 -19 13
-24 13 -4 1 -19 9 -31 18 -13 10 -27 17 -31 16 -4 -1 -10 3 -13 8 -8 13 -221
122 -238 122 -7 0 -13 5 -13 10 0 6 -8 10 -18 10 -10 0 -22 4 -27 8 -6 4 -37
18 -70 31 -33 13 -73 29 -90 36 -38 17 -286 100 -343 115 -41 10 -43 13 -37
38 4 15 8 34 10 42 2 8 11 44 20 80 9 36 18 74 20 85 1 11 8 38 13 60 11 39
22 91 27 130 2 11 4 20 5 20 2 0 9 34 16 85 3 25 8 47 9 50 2 3 7 33 10 65 4
33 9 62 10 65 4 7 18 111 17 130 0 8 2 22 5 30 3 8 7 40 9 70 2 30 6 82 9 115
16 185 19 252 18 480 0 272 -5 425 -13 425 -3 0 -6 17 -7 38 -1 34 -5 80 -18
215 -3 27 -7 61 -10 75 -3 15 -8 47 -11 72 -3 25 -7 56 -10 70 -2 14 -7 41
-10 60 -3 19 -12 67 -20 105 -8 39 -16 79 -18 90 -3 17 -17 85 -22 108 -1 4
-3 9 -4 12 -1 3 -3 13 -5 23 -1 9 -4 24 -8 32 -6 17 -47 179 -50 201 -2 8 -5
19 -8 24 -4 6 -10 24 -14 40 -11 40 -12 44 -15 53 -1 4 -3 12 -4 17 -1 6 -5
17 -8 25 -3 8 -25 71 -48 140 -23 69 -66 187 -96 262 l-55 137 61 90 c66 98
180 310 212 394 62 163 88 243 111 342 29 126 34 149 53 295 20 144 8 510 -20
655 -3 17 -8 44 -11 60 -15 82 -71 272 -110 371 -273 699 -864 1226 -1580
1409 -71 18 -148 35 -170 39 -64 8 -118 17 -145 22 -62 13 -421 12 -534 -2
-435 -52 -832 -218 -1182 -495 -34 -27 -68 -49 -75 -49 -8 0 -50 12 -94 26
-44 14 -87 27 -95 29 -8 3 -49 14 -90 26 -89 25 -148 40 -175 45 -11 2 -47 11
-80 19 -33 9 -80 20 -105 25 -25 4 -56 11 -70 14 -45 10 -204 37 -250 42 -25
3 -65 9 -90 14 -24 5 -48 6 -53 3 -4 -2 -13 -1 -20 4 -7 4 -36 8 -64 8 -29 0
-53 2 -53 5 0 3 -19 6 -42 7 -24 1 -86 5 -138 9 -154 14 -820 8 -820 -6 0 -3
-28 -6 -63 -6 -55 -2 -96 -5 -217 -20 -47 -5 -99 -12 -135 -18 -32 -6 -79 -13
-122 -20 -16 -3 -38 -7 -49 -10 -12 -2 -37 -7 -55 -10 -19 -3 -47 -9 -64 -12
-16 -4 -39 -8 -50 -9 -11 -2 -20 -4 -20 -5 0 -2 -9 -4 -20 -5 -11 -1 -49 -10
-85 -20 -36 -9 -72 -19 -80 -20 -8 -2 -15 -4 -15 -5 0 -1 -9 -3 -20 -4 -11 -2
-40 -9 -65 -16 -25 -7 -49 -13 -55 -15 -5 -1 -18 -5 -27 -9 -9 -4 -22 -9 -30
-10 -27 -5 -164 -47 -181 -57 -13 -7 -33 3 -95 53 -175 139 -397 268 -601 347
-90 35 -239 83 -299 96 -12 3 -32 7 -44 10 -27 6 -246 43 -268 44 -42 4 -398
10 -401 7z m6686 -10636 c-3 -5 -12 -10 -18 -10 -7 0 -6 4 3 10 19 12 23 12
15 0z m-59 -78 c-17 -16 -18 -16 -5 5 7 12 15 20 18 17 3 -2 -3 -12 -13 -22z
m-6252 2 c3 -8 2 -12 -4 -9 -6 3 -10 10 -10 16 0 14 7 11 14 -7z m6196 -77 c0
-2 -12 -14 -27 -28 l-28 -24 24 28 c23 25 31 32 31 24z m-6111 -41 c-3 -3 -11
5 -18 17 -13 21 -12 21 5 5 10 -10 16 -20 13 -22z m6051 -29 c0 -2 -12 -14
-27 -28 l-28 -24 24 28 c23 25 31 32 31 24z m-5989 -34 c13 -17 13 -17 -6 -3
-11 8 -22 16 -24 17 -2 2 0 3 6 3 6 0 17 -8 24 -17z m80 -90 c13 -16 12 -17
-3 -4 -10 7 -18 15 -18 17 0 8 8 3 21 -13z m5779 -16 c0 -2 -17 -19 -37 -38
l-38 -34 34 38 c33 34 41 42 41 34z m-5735 -27 c10 -11 16 -20 13 -20 -3 0
-13 9 -23 20 -10 11 -16 20 -13 20 3 0 13 -9 23 -20z m46 -47 c13 -16 12 -17
-3 -4 -10 7 -18 15 -18 17 0 8 8 3 21 -13z m117 -103 c7 -11 11 -20 9 -20 -2
0 -12 9 -22 20 -10 11 -14 20 -9 20 5 0 15 -9 22 -20z m5402 17 c0 -2 -12 -14
-27 -28 l-26 -24 19 27 c16 23 34 36 34 25z m-5330 -71 c0 -3 -4 -8 -10 -11
-5 -3 -10 -1 -10 4 0 6 5 11 10 11 6 0 10 -2 10 -4z m5250 1 c0 -2 -12 -14
-27 -28 l-28 -24 24 28 c23 25 31 32 31 24z m-5174 -79 l19 -23 -25 20 c-14
11 -27 21 -29 22 -2 2 0 3 6 3 5 0 18 -10 29 -22z m5104 19 c0 -2 -10 -12 -22
-23 l-23 -19 19 23 c18 21 26 27 26 19z m-50 -41 c0 -2 -8 -10 -17 -17 -16
-13 -17 -12 -4 4 13 16 21 21 21 13z m-4950 -61 c14 -19 14 -19 -2 -6 -10 7
-18 18 -18 24 0 6 1 8 3 6 1 -2 9 -13 17 -24z m4850 -19 c0 -2 -7 -7 -16 -10
-8 -3 -12 -2 -9 4 6 10 25 14 25 6z m-50 -40 c0 -2 -7 -7 -16 -10 -8 -3 -12
-2 -9 4 6 10 25 14 25 6z m-83 -56 c-14 -11 -28 -20 -32 -20 -10 0 38 39 49
40 5 0 -3 -9 -17 -20z m-4517 -26 c0 -2 -9 0 -20 6 -11 6 -20 13 -20 16 0 2 9
0 20 -6 11 -6 20 -13 20 -16z m120 -80 c0 -2 -9 0 -20 6 -11 6 -20 13 -20 16
0 2 9 0 20 -6 11 -6 20 -13 20 -16z m4270 21 c0 -2 -10 -9 -22 -15 -22 -11
-22 -10 -4 4 21 17 26 19 26 11z m-50 -29 c0 -2 -8 -10 -17 -17 -16 -13 -17
-12 -4 4 13 16 21 21 21 13z m-4185 -16 c3 -6 -1 -7 -9 -4 -18 7 -21 14 -7 14
6 0 13 -4 16 -10z m4115 -34 c0 -7 -71 -46 -83 -46 -6 0 8 11 33 25 49 27 50
27 50 21z m-3935 -73 c11 -7 16 -13 11 -13 -10 0 -126 71 -126 77 0 5 78 -39
115 -64z m3815 -3 c-24 -15 -36 -11 -14 4 10 8 21 12 24 10 2 -3 -2 -9 -10
-14z m-3720 -56 c0 -2 -16 4 -35 13 -19 9 -35 20 -35 25 0 4 16 -2 35 -13 19
-12 35 -23 35 -25z m3675 36 c-3 -6 -21 -17 -38 -26 -36 -19 -31 -9 10 17 34
21 36 22 28 9z m-75 -45 c0 -2 -13 -11 -30 -20 -38 -19 -40 -11 -2 9 31 17 32
18 32 11z m-3534 -33 c-4 -3 -14 2 -24 12 -16 18 -16 18 6 6 13 -6 21 -14 18
-18z m84 -37 c11 -13 10 -14 -4 -9 -9 3 -16 10 -16 15 0 13 6 11 20 -6z m3295
-15 c3 -5 1 -10 -4 -10 -6 0 -11 5 -11 10 0 6 2 10 4 10 3 0 8 -4 11 -10z
m-3169 -57 c-5 -5 -86 41 -86 49 0 4 20 -5 45 -19 24 -15 43 -29 41 -30z
m3129 34 c-23 -16 -63 -32 -52 -21 10 10 51 32 62 33 5 1 1 -5 -10 -12z m-70
-37 c-3 -5 -12 -10 -18 -10 -7 0 -6 4 3 10 19 12 23 12 15 0z m-100 -50 c-3
-5 -12 -10 -18 -10 -7 0 -6 4 3 10 19 12 23 12 15 0z m-38 -16 c-10 -10 -107
-54 -107 -48 0 4 99 54 109 54 2 0 2 -3 -2 -6z m-2743 -13 c3 -4 -6 -6 -19 -3
-14 2 -25 6 -25 8 0 8 39 4 44 -5z m36 -16 c11 -13 10 -14 -4 -9 -9 3 -16 10
-16 15 0 13 6 11 20 -6z m60 -30 c14 -8 21 -14 15 -14 -5 0 -21 6 -35 14 -14
8 -20 14 -15 14 6 0 21 -6 35 -14z m60 -25 c8 -5 11 -10 5 -10 -5 0 -17 5 -25
10 -8 5 -10 10 -5 10 6 0 17 -5 25 -10z m2419 6 c-14 -13 -70 -36 -64 -26 4 6
17 15 29 20 22 9 42 13 35 6z m-2379 -26 c0 -5 -2 -10 -4 -10 -3 0 -8 5 -11
10 -3 6 -1 10 4 10 6 0 11 -4 11 -10z m2300 -10 c0 -5 -5 -10 -11 -10 -5 0 -7
5 -4 10 3 6 8 10 11 10 2 0 4 -4 4 -10z m-2201 -36 c14 -12 -19 -1 -35 12 -18
14 -18 14 6 3 14 -6 27 -13 29 -15z m2156 16 c-3 -5 -12 -10 -18 -10 -7 0 -6
4 3 10 19 12 23 12 15 0z m-2090 -49 c-6 -5 -25 10 -25 20 0 5 6 4 14 -3 8 -7
12 -15 11 -17z m2005 9 c-8 -5 -19 -10 -25 -10 -5 0 -3 5 5 10 8 5 20 10 25
10 6 0 3 -5 -5 -10z m-1960 -20 c8 -5 11 -10 5 -10 -5 0 -17 5 -25 10 -8 5
-10 10 -5 10 6 0 17 -5 25 -10z m1885 -10 c-3 -5 -12 -10 -18 -10 -7 0 -6 4 3
10 19 12 23 12 15 0z m-51 -18 c3 -5 -1 -9 -9 -9 -8 0 -12 4 -9 9 3 4 7 8 9 8
2 0 6 -4 9 -8z m-184 -72 c0 -5 -5 -10 -11 -10 -5 0 -7 5 -4 10 3 6 8 10 11
10 2 0 4 -4 4 -10z m-1345 -20 c3 -5 1 -10 -4 -10 -6 0 -11 5 -11 10 0 6 2 10
4 10 3 0 8 -4 11 -10z m1285 -4 c0 -3 -4 -8 -10 -11 -5 -3 -10 -1 -10 4 0 6 5
11 10 11 6 0 10 -2 10 -4z m-1225 -16 c13 -6 15 -9 5 -9 -8 0 -22 4 -30 9 -18
12 -2 12 25 0z m1105 -30 c0 -5 -2 -10 -4 -10 -3 0 -8 5 -11 10 -3 6 -1 10 4
10 6 0 11 -4 11 -10z m-985 -10 c13 -5 14 -9 5 -9 -8 0 -24 4 -35 9 -13 5 -14
9 -5 9 8 0 24 -4 35 -9z m925 -4 c0 -2 -7 -7 -16 -10 -8 -3 -12 -2 -9 4 6 10
25 14 25 6z m-875 -16 c3 -6 -1 -7 -9 -4 -18 7 -21 14 -7 14 6 0 13 -4 16 -10z
m825 -5 c-7 -8 -20 -15 -29 -15 -11 0 -8 5 9 14 33 19 35 19 20 1z m-795 -5
c3 -5 1 -10 -4 -10 -6 0 -11 5 -11 10 0 6 2 10 4 10 3 0 8 -4 11 -10z m72 -25
c31 -6 99 -34 86 -34 -6 -1 -24 4 -40 10 -15 6 -37 13 -47 15 -11 2 -24 9 -30
15 -8 9 -8 10 1 5 7 -4 21 -9 30 -11z m647 3 c-3 -4 -9 -8 -15 -8 -5 0 -9 4
-9 8 0 5 7 9 15 9 8 0 12 -4 9 -9z m-79 -28 c-11 -5 -27 -9 -35 -9 -9 0 -8 4
5 9 11 5 27 9 35 9 9 0 8 -4 -5 -9z m-55 -14 c0 -3 -4 -8 -10 -11 -5 -3 -10
-1 -10 4 0 6 5 11 10 11 6 0 10 -2 10 -4z m-325 -27 c5 -5 -5 -4 -23 2 -17 6
-32 13 -32 16 0 7 43 -8 55 -18z m255 1 c-8 -5 -24 -9 -35 -9 -16 1 -16 2 5 9
35 11 48 11 30 0z m-190 -20 c0 -5 -2 -10 -4 -10 -3 0 -8 5 -11 10 -3 6 -1 10
4 10 6 0 11 -4 11 -10z m120 0 c-8 -5 -22 -9 -30 -9 -10 0 -8 3 5 9 27 12 43
12 25 0z m-80 -6 c0 -8 -19 -13 -24 -6 -3 5 1 9 9 9 8 0 15 -2 15 -3z"/>
</g>
</svg>
